<svg xmlns="http://www.w3.org/2000/svg" height="20" width="20"><path d="M10 13.375q1.417 0 2.396-.99.979-.989.979-2.385 0-1.417-.979-2.396-.979-.979-2.396-.979-1.396 0-2.385.979-.99.979-.99 2.396 0 1.396.99 2.385.989.99 2.385.99Zm0-1.521q-.771 0-1.312-.542-.542-.541-.542-1.312t.542-1.312q.541-.542 1.312-.542t1.312.542q.542.541.542 1.312t-.542 1.312q-.541.542-1.312.542Zm0 4.125q-2.958 0-5.365-1.646Q2.229 12.688 1.083 10q1.146-2.688 3.552-4.333Q7.042 4.021 10 4.021t5.365 1.646Q17.771 7.312 18.917 10q-1.146 2.688-3.552 4.333-2.407 1.646-5.365 1.646Z"/></svg>